<?xml version="1.0" encoding="iso-8859-1"?>
<!-- Generator: Adobe Illustrator 16.0.0, SVG Export Plug-In . SVG Version: 6.00 Build 0)  -->
<!DOCTYPE svg PUBLIC "-//W3C//DTD SVG 1.1//EN" "http://www.w3.org/Graphics/SVG/1.1/DTD/svg11.dtd">
<svg version="1.1" id="Capa_1" xmlns="http://www.w3.org/2000/svg" xmlns:xlink="http://www.w3.org/1999/xlink" x="0px" y="0px"
	 width="27.875px" height="27.875px" viewBox="0 0 27.875 27.875" style="enable-background:new 0 0 27.875 27.875;"
	 xml:space="preserve">
<g>
	<path d="M25.97,2.893h-5.441V1.5c0-0.829-0.672-1.5-1.5-1.5c-0.827,0-1.5,0.671-1.5,1.5v1.393h-7.182V1.5
		c0-0.829-0.672-1.5-1.5-1.5c-0.828,0-1.5,0.671-1.5,1.5v1.393H1.904c-0.828,0-1.5,0.671-1.5,1.5v21.982c0,0.83,0.672,1.5,1.5,1.5
		h24.066c0.828,0,1.5-0.67,1.5-1.5V4.393C27.47,3.564,26.797,2.893,25.97,2.893z M3.403,24.876V9.619H24.47v15.256L3.403,24.876
		L3.403,24.876z"/>
</g>
<g>
</g>
<g>
</g>
<g>
</g>
<g>
</g>
<g>
</g>
<g>
</g>
<g>
</g>
<g>
</g>
<g>
</g>
<g>
</g>
<g>
</g>
<g>
</g>
<g>
</g>
<g>
</g>
<g>
</g>
</svg>
