<?xml version="1.0" standalone="no"?>
<!DOCTYPE svg PUBLIC "-//W3C//DTD SVG 20010904//EN"
 "http://www.w3.org/TR/2001/REC-SVG-20010904/DTD/svg10.dtd">
<svg version="1.0" xmlns="http://www.w3.org/2000/svg"
 width="714.000000pt" height="714.000000pt" viewBox="0 0 714.000000 714.000000"
 preserveAspectRatio="xMidYMid meet">
<metadata>
Created by potrace 1.14, written by Peter Selinger 2001-2017
</metadata>
<g transform="translate(0.000000,714.000000) scale(0.100000,-0.100000)"
fill="#000000" stroke="none">
<path d="M3536 6624 c-3 -8 -13 -14 -21 -14 -9 0 -14 -4 -11 -9 4 -5 -2 -8
-11 -7 -20 3 -43 -15 -36 -27 3 -5 -4 -4 -16 2 -17 10 -20 9 -15 -4 4 -10 0
-15 -10 -15 -9 0 -16 -4 -16 -10 0 -5 -7 -10 -16 -10 -8 0 -22 -7 -30 -15 -19
-18 -38 -20 -28 -2 5 8 2 7 -9 -2 -10 -8 -15 -16 -12 -19 3 -3 0 -11 -6 -19
-9 -10 -15 -11 -26 -1 -11 9 -13 9 -11 -1 2 -8 -5 -15 -15 -16 -10 -2 -30 -15
-44 -29 -14 -14 -34 -26 -44 -26 -11 0 -19 -7 -19 -16 0 -8 -5 -12 -11 -9 -6
4 -16 -1 -23 -11 -8 -11 -20 -15 -30 -11 -11 4 -15 3 -11 -4 4 -6 -2 -13 -14
-16 -12 -3 -21 -10 -21 -16 0 -6 -3 -8 -6 -4 -4 3 -15 -4 -26 -16 -11 -12 -17
-17 -14 -11 3 6 -1 11 -9 11 -8 0 -13 -3 -11 -6 2 -3 -6 -15 -17 -26 l-20 -20
7 20 c5 14 -2 10 -23 -12 -19 -21 -31 -28 -34 -20 -4 9 -6 9 -6 0 -1 -7 -8
-13 -16 -13 -8 0 -15 -5 -15 -11 0 -5 5 -7 12 -3 6 4 8 3 5 -4 -4 -5 -18 -9
-32 -7 -14 1 -23 0 -20 -3 3 -3 -2 -14 -11 -24 -12 -13 -21 -15 -30 -7 -9 7
-14 6 -20 -2 -4 -8 -3 -9 4 -5 7 4 12 2 12 -3 0 -10 -17 -15 -47 -14 -7 1 -10
-4 -7 -9 3 -5 -3 -12 -15 -15 -12 -3 -21 -10 -21 -17 0 -6 -5 -4 -10 4 -7 11
-10 12 -10 2 0 -21 -26 -42 -39 -31 -6 5 -9 6 -7 3 3 -3 -1 -12 -7 -19 -9 -9
-16 -10 -25 -3 -9 8 -11 7 -6 -6 5 -12 2 -15 -10 -10 -11 4 -16 2 -14 -7 2 -8
-4 -13 -14 -13 -10 1 -15 -2 -12 -7 3 -5 -4 -9 -16 -9 -12 0 -19 -4 -16 -9 3
-5 -1 -12 -10 -15 -10 -4 -13 -2 -8 7 4 6 -5 0 -20 -15 -16 -15 -32 -25 -37
-22 -5 3 -9 1 -9 -3 0 -11 -55 -44 -64 -38 -3 3 -4 2 -1 -2 7 -9 -33 -35 -45
-28 -6 3 -10 2 -10 -4 0 -12 -60 -42 -71 -35 -5 3 -6 -1 -3 -9 3 -9 -2 -16
-13 -19 -34 -9 -38 -11 -48 -25 -6 -8 -20 -15 -32 -16 -12 0 -20 -4 -17 -8 6
-10 -21 -30 -29 -22 -4 3 -7 1 -7 -6 0 -7 -4 -9 -10 -6 -5 3 -10 1 -10 -6 0
-8 -4 -8 -15 1 -13 11 -14 10 -10 -3 4 -8 1 -18 -6 -23 -8 -5 -10 -3 -5 7 4 8
0 5 -8 -5 -9 -11 -23 -21 -32 -22 -9 -1 -22 -11 -31 -21 -8 -10 -12 -12 -8 -5
3 6 1 12 -4 12 -6 0 -11 -7 -11 -15 0 -8 -7 -15 -15 -15 -8 0 -15 -5 -15 -11
0 -6 -9 -9 -20 -6 -11 3 -18 2 -15 -3 3 -4 -3 -14 -12 -21 -9 -8 -14 -9 -10
-3 3 6 0 11 -7 11 -8 0 -12 -6 -9 -13 2 -6 -1 -15 -8 -20 -8 -4 -10 -3 -5 4 5
8 2 10 -8 6 -9 -3 -13 -11 -9 -17 4 -6 0 -8 -10 -4 -11 4 -17 1 -17 -9 0 -8
-4 -13 -9 -10 -7 5 -18 -2 -67 -43 -7 -6 -16 -5 -23 2 -9 9 -10 8 -5 -7 5 -13
4 -17 -4 -12 -7 4 -12 3 -12 -3 0 -6 -17 -19 -37 -30 l-38 -20 32 2 c18 1 34
-2 35 -6 2 -5 -20 -10 -49 -11 -33 -1 -58 -8 -70 -19 -11 -9 -23 -17 -27 -17
-4 0 -27 -13 -51 -30 -24 -16 -48 -30 -54 -30 -6 0 -11 -4 -11 -10 0 -5 -7
-10 -15 -10 -8 0 -28 -14 -45 -30 -17 -17 -35 -28 -39 -25 -5 2 -20 -4 -34
-15 -14 -11 -28 -20 -31 -20 -4 0 -12 -5 -19 -10 -37 -31 -91 -70 -98 -71 -5
-1 -13 -3 -19 -4 -5 -1 -15 -3 -21 -4 -5 0 -7 -6 -3 -13 4 -6 3 -8 -3 -5 -6 4
-22 -2 -36 -13 -14 -11 -30 -20 -35 -20 -5 0 -12 -6 -14 -12 -8 -23 -7 -388 1
-388 4 0 8 -7 8 -15 0 -8 -4 -15 -9 -15 -4 0 -8 -13 -8 -28 l0 -28 -406 -1
c-223 -1 -409 -4 -412 -8 -3 -3 -6 -476 -7 -1050 l0 -1044 133 -3 c72 -2 132
-1 132 2 0 3 124 5 275 6 l274 1 3 -219 c2 -120 -1 -218 -5 -218 -5 0 -5 -5
-2 -10 3 -5 0 -10 -7 -10 -9 0 -9 -3 -2 -8 6 -4 14 -15 17 -26 5 -11 13 -16
22 -12 9 3 18 -1 21 -9 4 -8 12 -15 19 -15 6 0 22 -9 35 -20 13 -12 30 -18 37
-15 8 2 12 1 8 -4 -3 -5 8 -12 24 -16 16 -3 41 -18 55 -32 15 -15 30 -22 37
-17 9 5 10 2 6 -9 -4 -11 -2 -14 9 -10 7 3 14 0 14 -6 0 -6 7 -11 16 -11 9 0
23 -8 31 -17 8 -10 12 -12 8 -6 -4 9 -1 11 9 7 9 -3 13 -11 9 -17 -4 -6 0 -8
10 -4 12 4 14 2 10 -10 -5 -13 -1 -15 20 -11 15 3 24 1 21 -3 -3 -5 0 -9 6 -9
6 0 8 -4 5 -10 -3 -6 1 -7 9 -4 9 3 16 1 16 -6 0 -6 4 -9 9 -6 4 3 17 -2 27
-10 10 -9 13 -12 5 -8 -9 5 -12 3 -7 -5 4 -6 12 -8 18 -5 6 4 21 -6 35 -22 13
-16 22 -24 19 -17 -4 6 -2 14 4 18 5 3 10 -1 10 -10 0 -9 5 -13 10 -10 6 3 10
1 10 -5 0 -6 4 -9 9 -6 5 3 11 -1 15 -9 3 -9 12 -12 22 -8 12 4 15 3 10 -5 -4
-7 -2 -12 5 -12 7 0 21 -8 31 -17 18 -16 19 -16 13 3 -5 14 -3 13 7 -4 8 -12
17 -19 21 -16 4 4 7 2 7 -4 0 -7 3 -11 8 -11 19 3 33 -2 27 -11 -4 -6 5 -10
19 -10 14 0 25 -3 23 -7 -1 -5 2 -9 6 -10 5 0 23 -14 40 -30 22 -19 26 -21 12
-5 l-20 24 32 -18 c22 -13 28 -21 20 -27 -7 -5 -1 -7 15 -4 15 2 25 0 22 -4
-3 -5 0 -9 6 -9 6 0 9 -4 5 -9 -3 -5 0 -13 6 -17 8 -5 9 -3 4 6 -6 10 -4 12 9
7 10 -4 20 -7 22 -7 2 0 4 -7 4 -15 0 -8 4 -15 10 -15 5 0 6 8 3 18 -4 9 7 2
22 -16 29 -32 52 -43 40 -20 -4 7 0 5 8 -4 8 -10 22 -18 31 -18 9 0 16 -4 16
-10 0 -5 6 -10 13 -10 7 0 22 -7 33 -16 10 -8 12 -12 4 -8 -13 7 -13 6 0 -10
8 -10 16 -14 18 -7 2 6 21 -1 45 -16 23 -15 42 -25 42 -22 0 2 10 -3 22 -12
13 -9 20 -18 17 -22 -3 -3 5 -3 18 0 19 4 20 3 8 -7 -12 -10 -11 -11 8 -7 19
5 21 3 11 -9 -6 -8 -9 -17 -5 -21 3 -3 6 -2 6 4 0 17 33 10 53 -11 9 -10 17
-15 17 -11 0 4 8 2 18 -6 9 -8 38 -25 65 -38 28 -13 45 -27 40 -33 -4 -7 0 -9
10 -5 9 3 23 0 31 -8 8 -8 19 -15 25 -15 6 0 11 -5 11 -12 0 -6 3 -8 7 -5 3 4
12 -1 20 -11 8 -9 12 -11 8 -5 -4 9 -1 11 9 7 9 -3 14 -10 11 -14 -6 -10 51
-31 61 -22 4 4 4 2 1 -4 -3 -6 9 -17 28 -24 19 -8 35 -20 35 -27 0 -8 5 -11
11 -8 6 4 17 -1 25 -11 9 -11 12 -13 9 -6 -6 11 -3 11 13 1 12 -7 19 -16 16
-20 -2 -4 1 -11 7 -15 8 -4 9 -3 5 4 -4 7 -1 12 8 12 9 0 16 -3 16 -8 0 -4 10
-12 23 -17 12 -6 21 -17 19 -25 -3 -11 0 -11 14 1 10 8 15 9 11 3 -3 -6 9 -16
29 -23 19 -7 32 -17 29 -22 -3 -5 1 -6 9 -3 9 4 18 -1 22 -10 3 -9 12 -16 19
-16 7 0 16 -6 18 -12 4 -9 6 -8 7 2 0 10 6 6 15 -10 8 -14 14 -19 15 -11 0 8
8 3 20 -12 14 -18 26 -24 42 -19 12 3 19 1 15 -5 -3 -5 10 -15 29 -22 18 -7
34 -17 34 -22 0 -5 9 -9 20 -9 11 0 20 -4 20 -10 0 -5 5 -10 11 -10 7 0 18 -8
26 -17 9 -11 11 -12 7 -3 -6 12 -4 12 12 -1 10 -9 33 -22 51 -30 17 -7 34 -22
37 -33 3 -11 8 -17 12 -13 4 4 14 1 22 -6 13 -10 14 -9 8 1 -7 12 -4 12 15 1
13 -7 30 -14 37 -15 8 -1 17 -6 20 -10 4 -4 -1 -4 -11 -1 -10 4 -16 3 -13 -2
9 -13 66 -19 66 -7 0 6 4 5 9 -2 6 -11 10 -10 15 3 4 10 12 15 22 11 8 -3 12
-2 9 4 -3 6 0 10 8 10 8 0 17 7 21 15 3 9 12 12 22 8 13 -5 16 -2 11 9 -4 12
-1 14 14 11 21 -6 52 14 43 28 -3 5 2 9 10 9 9 0 16 5 16 11 0 8 6 7 17 -2 11
-10 14 -10 9 -1 -4 7 -2 12 4 12 6 0 9 4 6 8 -3 5 1 9 9 9 8 0 12 -4 9 -8 -2
-4 1 -11 7 -15 7 -4 9 -3 6 3 -8 13 29 63 46 63 7 0 6 -4 -3 -10 -8 -5 -10
-10 -5 -10 18 0 38 18 31 28 -4 6 2 8 16 4 15 -4 19 -2 14 7 -6 8 -2 11 10 9
11 -2 18 2 17 9 -2 7 6 10 17 8 11 -2 19 1 17 7 -1 6 9 14 23 18 14 4 24 13
22 20 -3 11 0 11 12 0 9 -7 16 -8 16 -2 0 5 9 12 20 15 11 3 20 9 19 14 -3 20
2 25 16 13 12 -10 16 -8 24 11 5 13 10 17 10 9 1 -10 6 -7 17 8 9 13 22 21 30
18 8 -3 17 1 21 10 5 13 7 13 14 2 7 -10 9 -9 9 4 0 18 53 52 64 41 3 -4 6 -1
6 6 0 7 5 9 10 6 6 -3 10 -2 10 4 0 6 8 7 18 4 15 -6 16 -5 2 12 -14 17 -13
18 3 12 9 -3 17 -2 17 3 0 5 9 7 20 5 11 -2 18 0 15 6 -4 5 -1 9 5 9 6 0 9 4
6 9 -4 5 3 7 13 4 13 -3 23 2 31 17 7 13 17 19 26 16 8 -3 13 -2 9 3 -8 13 17
20 37 10 11 -6 19 -5 24 3 4 6 3 8 -4 4 -6 -3 -13 -2 -17 4 -3 5 1 10 9 10 9
0 16 5 16 11 0 8 5 7 15 -1 13 -11 14 -10 8 5 -5 15 -3 17 11 12 10 -4 15 -3
11 3 -3 6 -1 10 5 10 6 0 8 5 4 13 -5 7 0 6 11 -3 11 -9 16 -10 11 -2 -5 8 0
12 17 12 14 0 31 8 38 18 11 14 11 15 -1 5 -8 -7 -19 -13 -24 -13 -6 0 2 9 18
19 16 11 37 18 47 16 10 -2 18 1 16 8 -1 6 3 11 9 12 7 0 20 9 30 20 11 12 15
15 10 8 -10 -16 -1 -17 25 -2 11 5 17 15 13 20 -4 7 3 6 16 -1 15 -8 20 -8 16
-1 -4 6 0 14 8 17 9 3 13 10 10 16 -3 5 2 8 12 6 11 -2 18 2 17 9 -2 7 6 10
19 8 11 -3 18 -2 15 2 -3 3 0 12 8 19 16 16 29 19 20 4 -3 -6 1 -7 10 -4 9 4
14 12 11 20 -3 8 2 11 15 9 11 -2 22 2 26 11 4 11 8 12 19 3 12 -10 13 -8 8 6
-5 12 -4 16 3 12 6 -4 13 -3 15 3 1 5 15 11 29 12 20 2 25 6 21 21 -4 17 -2
18 16 8 19 -10 21 -9 15 6 -5 12 -2 15 10 10 9 -3 19 -1 23 5 5 7 2 8 -6 3 -9
-6 -11 -4 -6 4 5 7 14 10 22 7 8 -3 14 1 14 9 0 9 6 12 17 8 11 -5 14 -3 8 6
-5 10 -2 11 14 6 15 -4 21 -2 21 9 0 8 5 18 12 22 7 5 8 3 3 -5 -4 -7 4 -5 19
4 14 10 26 21 26 26 0 5 7 6 15 3 8 -4 15 -1 15 6 0 7 7 10 16 6 8 -3 12 -2 9
4 -3 6 2 13 12 17 10 3 28 15 40 26 12 10 26 16 31 13 5 -3 15 1 22 8 6 8 20
13 30 11 14 -3 17 1 13 12 -5 13 -1 15 20 11 22 -4 25 -3 16 8 -9 11 -7 14 9
14 12 0 26 8 31 18 8 13 10 14 11 2 0 -13 2 -13 9 0 6 8 7 19 3 25 -3 5 2 4
12 -4 15 -12 17 -12 14 0 -2 8 3 13 10 12 6 -2 12 3 12 10 0 8 4 7 10 -3 8
-13 10 -12 10 4 0 12 5 16 15 12 8 -3 14 0 12 7 -1 7 4 11 11 10 6 -2 12 2 12
8 0 6 6 9 13 6 7 -3 19 3 25 14 7 10 18 16 25 14 6 -3 20 7 30 22 10 16 16 19
13 9 -5 -15 -4 -17 7 -8 8 7 18 8 23 4 4 -4 2 1 -5 11 -12 15 -12 17 3 11 9
-3 16 -1 16 6 0 6 5 8 10 5 6 -3 10 -1 10 4 0 6 5 11 11 11 7 0 18 8 26 17 8
10 12 13 9 6 -4 -6 -2 -14 4 -18 5 -3 10 1 10 10 0 11 5 15 16 11 8 -3 12 -2
9 3 -3 5 -1 12 5 16 5 3 10 0 11 -7 0 -7 4 -3 10 10 5 13 13 21 19 17 5 -3 18
3 30 15 12 12 20 15 20 8 0 -9 3 -8 9 2 6 8 7 18 5 22 -3 4 2 5 10 2 9 -4 18
1 22 10 3 9 10 16 16 16 5 0 6 -6 2 -12 -6 -10 -3 -9 8 0 10 8 14 20 11 29 -5
12 -3 14 7 8 10 -6 12 -3 8 13 -4 12 -2 22 3 22 5 0 5 10 0 23 -5 14 -5 30 0
40 7 11 6 17 0 17 -6 0 -8 7 -5 15 4 9 0 15 -7 15 -11 0 -11 3 1 10 8 5 10 10
4 10 -15 0 -15 233 0 242 8 5 7 8 -2 8 -7 0 -11 4 -8 8 3 5 81 7 173 6 205 -3
734 -7 748 -5 7 1 10 360 10 1054 0 929 -2 1054 -15 1055 -23 2 -438 0 -600
-3 -80 -1 -153 2 -162 7 -12 5 -18 5 -18 -1 0 -7 -9 -7 -25 -1 -16 6 -25 6
-25 -1 0 -6 -7 -6 -20 1 -15 8 -20 8 -20 -2 -1 -7 -10 -2 -21 12 -12 13 -16
26 -10 28 6 2 7 12 1 26 -4 12 -5 28 -1 34 4 7 4 37 1 67 -3 31 -2 55 3 55 5
0 4 6 -2 13 -6 8 -8 16 -5 20 8 8 10 197 2 197 -4 0 -9 9 -13 19 -3 10 -17 22
-31 25 -14 4 -22 11 -19 16 4 6 -1 7 -11 3 -11 -4 -15 -3 -10 5 4 6 -3 12 -16
14 -13 2 -22 9 -21 15 1 6 -6 9 -16 6 -10 -3 -22 1 -26 8 -6 8 -4 10 5 4 9 -5
11 -4 6 4 -6 9 -11 9 -22 0 -12 -9 -13 -9 -9 3 3 8 0 15 -7 15 -19 0 -88 43
-88 55 0 6 -7 8 -15 4 -9 -3 -15 0 -15 10 0 12 -6 15 -21 11 -12 -3 -22 0 -26
9 -3 9 -13 12 -27 9 -15 -5 -17 -4 -7 3 9 7 10 12 2 16 -6 4 -11 4 -11 -1 0
-4 -5 0 -11 10 -5 9 -17 17 -24 17 -8 0 -15 5 -15 10 0 6 -5 10 -11 10 -5 0
-7 -5 -3 -12 4 -7 3 -8 -5 -4 -6 4 -9 11 -6 16 3 5 1 11 -5 15 -5 3 -10 1 -10
-4 0 -6 -9 -2 -20 9 -12 12 -18 26 -14 33 5 9 3 9 -7 0 -19 -18 -24 -16 -38
13 -9 21 -14 24 -26 14 -12 -10 -15 -10 -15 0 0 8 -3 11 -6 7 -6 -6 -24 6 -52
36 -9 9 -25 17 -35 17 -11 0 -15 4 -11 12 4 6 3 9 -2 6 -13 -8 -56 10 -50 21
3 5 -2 15 -11 22 -12 10 -14 10 -9 2 12 -21 -12 -14 -35 10 -12 12 -18 16 -14
9 6 -11 3 -12 -14 -3 -11 7 -21 14 -21 17 0 3 5 2 12 -2 7 -4 8 -3 4 4 -4 6
-14 8 -23 5 -10 -4 -14 -2 -10 4 4 6 0 14 -9 17 -10 4 -13 2 -8 -7 5 -8 2 -8
-9 2 -9 7 -14 18 -10 25 4 6 -1 5 -10 -3 -15 -12 -17 -11 -17 3 0 10 -4 15 -9
12 -7 -5 -19 3 -68 44 -8 6 -13 5 -16 -3 -4 -9 -6 -9 -6 1 -1 7 -6 10 -13 6
-7 -5 -9 -2 -5 9 4 11 2 14 -7 11 -8 -3 -17 0 -21 5 -3 6 -11 9 -16 6 -5 -3
-6 0 -4 7 4 9 -3 14 -17 15 -12 1 -28 10 -35 19 -7 9 -17 13 -24 8 -8 -5 -10
-3 -4 6 6 10 4 12 -8 7 -11 -4 -14 -2 -10 9 3 8 2 14 -3 12 -18 -5 -54 14 -54
28 0 8 -4 13 -9 9 -5 -3 -16 1 -24 9 -11 11 -17 12 -27 3 -10 -9 -11 -9 -6 1
4 7 1 12 -7 12 -8 0 -19 10 -26 23 -6 12 -9 14 -6 4 3 -10 1 -15 -5 -12 -6 3
-10 14 -11 23 0 13 -2 13 -6 3 -4 -10 -9 -8 -20 10 -8 13 -12 16 -9 6 5 -15 1
-14 -27 5 -17 13 -35 27 -38 31 -3 5 -10 9 -15 10 -5 1 -8 5 -7 9 2 4 -5 4
-14 1 -10 -4 -14 -2 -10 4 5 7 -1 9 -15 5 -14 -3 -19 -2 -14 6 4 7 1 12 -8 12
-9 0 -16 5 -16 11 0 5 -4 8 -9 5 -5 -3 -12 1 -15 10 -4 10 -14 14 -26 11 -11
-3 -18 -1 -14 4 3 5 1 9 -5 9 -6 0 -8 8 -5 18 5 13 4 14 -4 3 -7 -10 -14 -10
-29 -2 -11 5 -23 7 -27 3 -4 -3 -4 1 0 11 4 12 1 17 -11 17 -10 0 -24 8 -32
18 -10 11 -12 12 -8 2 5 -12 4 -12 -7 1 -13 16 -19 19 -38 19 -5 0 -10 7 -10
15 0 9 -6 12 -16 8 -11 -4 -22 1 -30 12 -8 10 -14 15 -14 11 0 -4 -11 5 -25
20 -14 15 -25 21 -25 14 0 -8 -8 -4 -19 9 -14 16 -21 18 -24 9 -4 -11 -6 -10
-6 0 -1 7 -6 10 -13 6 -6 -4 -8 -3 -5 3 4 6 -1 17 -10 24 -11 10 -14 10 -9 2
5 -9 2 -11 -8 -7 -9 3 -13 10 -10 15 3 5 -2 9 -10 9 -8 0 -21 6 -28 13 -21 20
-71 50 -64 38 4 -6 5 -11 2 -11 -3 0 -13 12 -21 28 -9 15 -14 18 -10 8 5 -16
3 -17 -10 -6 -8 7 -12 17 -8 23 3 5 1 7 -5 3 -6 -3 -13 -2 -17 4 -3 5 -15 10
-26 10 -13 0 -18 4 -13 13 4 6 4 9 -1 5 -4 -4 -15 -2 -23 5 -13 10 -14 9 -8
-3 4 -8 -1 -4 -12 9 -12 15 -24 21 -32 16 -10 -6 -12 -4 -7 8 4 11 2 14 -7 11
-8 -3 -17 0 -22 7 -5 8 -3 10 6 4 8 -5 11 -4 7 3 -4 5 -16 8 -27 5 -11 -3 -20
0 -20 6 0 6 -6 11 -14 11 -8 0 -21 8 -28 18 -13 16 -29 24 -55 25 -9 0 -10 4
-2 13 8 9 5 11 -10 7 -12 -3 -21 -1 -21 6 0 6 -6 11 -14 11 -8 0 -16 7 -20 15
-3 8 -10 15 -16 15 -6 0 -8 -6 -4 -12 4 -7 -2 -4 -13 7 -11 11 -18 25 -15 30
3 6 -3 3 -13 -5 -10 -8 -16 -10 -12 -4 4 7 -3 14 -18 16 -14 3 -26 0 -29 -8z
m2108 -1230 c3 -8 2 -12 -4 -9 -6 3 -10 10 -10 16 0 14 7 11 14 -7z m-1914
-4814 c0 -5 -5 -10 -11 -10 -5 0 -7 5 -4 10 3 6 8 10 11 10 2 0 4 -4 4 -10z"/>
<path d="M2776 6173 c-6 -14 -5 -15 5 -6 7 7 10 15 7 18 -3 3 -9 -2 -12 -12z"/>
<path d="M3856 652 c-3 -5 1 -9 9 -9 8 0 12 4 9 9 -3 4 -7 8 -9 8 -2 0 -6 -4
-9 -8z"/>
</g>
</svg>
